<?xml version="1.0" encoding="iso-8859-1"?>
<!-- Uploaded to: SVG Repo, www.svgrepo.com, Generator: SVG Repo Mixer Tools -->
<!DOCTYPE svg PUBLIC "-//W3C//DTD SVG 1.1//EN" "http://www.w3.org/Graphics/SVG/1.1/DTD/svg11.dtd">
<svg fill="#ffffff" version="1.1" id="Capa_1" xmlns="http://www.w3.org/2000/svg" xmlns:xlink="http://www.w3.org/1999/xlink" 
	 width="24px" height="24px" viewBox="0 0 486.168 486.168"
	 xml:space="preserve">
<g>
	<g>
		<path d="M477.368,336.659c5.839-13.808,8.8-28.444,8.8-43.501s-2.961-29.693-8.801-43.504
			c-5.632-13.312-13.68-25.253-23.922-35.495c-10.25-10.246-22.191-18.294-35.493-23.918c-14.103-5.965-29.035-8.917-44.468-8.798
			c-4.514-4.802-9.475-9.229-14.805-13.204c-19.415-14.479-42.497-22.131-66.752-22.131c-21.58,0-42.541,6.179-60.618,17.869
			c-3.455,2.235-6.798,4.668-9.987,7.269c-5.152-0.721-10.373-1.084-15.587-1.084c-15.062,0-29.699,2.961-43.504,8.801
			c-13.31,5.629-25.252,13.677-35.493,23.919c-10.245,10.244-18.294,22.187-23.922,35.496c-5.841,13.81-8.802,28.447-8.802,43.503
			c0,15.057,2.961,29.693,8.802,43.502c5.627,13.309,13.676,25.25,23.922,35.495c10.241,10.243,22.184,18.292,35.493,23.921
			c2.428,1.027,4.904,1.972,7.401,2.826c6.449,10.524,14.518,19.828,24.037,27.707c19.968,16.523,45.253,25.623,71.198,25.623
			c17.922,0,35.626-4.325,51.453-12.539c20.293,1.385,40.756-2.835,58.701-12.056c7.204-3.702,14.021-8.214,20.309-13.435
			c7.729-1.467,15.321-3.765,22.62-6.851c13.304-5.628,25.246-13.675,35.496-23.921
			C463.688,361.914,471.735,349.973,477.368,336.659z M408.215,373.051c-6.54,2.766-13.379,4.715-20.327,5.795
			c-2.366,0.368-4.579,1.409-6.371,2.998c-5.473,4.853-11.502,8.984-17.919,12.281c-12.165,6.251-25.856,9.555-39.596,9.555
			c-3.013,0-6.058-0.157-9.049-0.469c-2.581-0.268-5.187,0.273-7.445,1.553c-12.947,7.322-27.691,11.192-42.639,11.192
			c-20.14,0-39.765-7.062-55.259-19.883c-8.407-6.958-15.359-15.353-20.664-24.951c-1.598-2.892-4.274-5.032-7.445-5.955
			c-3.215-0.937-6.421-2.078-9.529-3.394c-10.33-4.368-19.601-10.617-27.555-18.572c-7.958-7.958-14.207-17.229-18.574-27.557
			c-4.53-10.711-6.827-22.07-6.827-33.764s2.297-23.053,6.827-33.765c4.368-10.328,10.617-19.599,18.574-27.556
			c7.954-7.955,17.225-14.203,27.555-18.572c10.707-4.529,22.067-6.826,33.765-6.826c5.676,0,11.354,0.553,16.881,1.645
			c3.889,0.77,7.92-0.356,10.851-3.032c3.534-3.228,7.377-6.19,11.42-8.806c14.021-9.068,30.288-13.861,47.041-13.861
			c18.828,0,36.742,5.938,51.808,17.172c5.464,4.075,10.422,8.749,14.734,13.891c2.551,3.042,6.386,4.685,10.361,4.443
			c1.849-0.116,3.739-0.175,5.617-0.175c11.694,0,23.055,2.297,33.765,6.827c10.323,4.366,19.595,10.615,27.556,18.573
			c7.953,7.953,14.202,17.226,18.573,27.556c4.528,10.709,6.825,22.07,6.825,33.765s-2.297,23.054-6.824,33.762
			c-4.372,10.332-10.621,19.604-18.572,27.558C427.811,362.434,418.538,368.684,408.215,373.051z"/>
		<path d="M30.518,245.336c9.553,9.553,20.691,17.061,33.11,22.312c2.379,1.006,4.896,1.955,7.479,2.822
			c1.318,0.442,2.659,0.652,3.978,0.652c5.224,0,10.096-3.301,11.849-8.528c2.196-6.545-1.33-13.631-7.875-15.827
			c-1.983-0.664-3.9-1.388-5.693-2.146c-9.436-3.992-17.903-9.699-25.169-16.964c-7.268-7.269-12.976-15.737-16.965-25.169
			c-4.137-9.784-6.234-20.16-6.234-30.839s2.098-21.056,6.234-30.838c3.989-9.434,9.697-17.901,16.965-25.169
			c7.267-7.266,15.734-12.974,25.169-16.964c9.778-4.137,20.154-6.234,30.839-6.234c5.187,0,10.374,0.505,15.418,1.502
			c3.896,0.771,7.92-0.356,10.85-3.031c3.237-2.954,6.746-5.66,10.434-8.043c12.807-8.282,27.664-12.66,42.965-12.66
			c17.196,0,33.558,5.423,47.317,15.686c4.991,3.721,9.52,7.99,13.461,12.688c2.551,3.042,6.396,4.683,10.36,4.442
			c1.701-0.107,3.43-0.161,5.133-0.161c10.683,0,21.058,2.098,30.838,6.235c9.432,3.989,17.899,9.697,25.17,16.964
			c3.862,3.863,7.355,8.18,10.384,12.829c3.767,5.786,11.511,7.422,17.295,3.657c5.786-3.766,7.423-11.51,3.656-17.295
			c-3.974-6.103-8.567-11.778-13.659-16.87c-9.559-9.555-20.697-17.062-33.105-22.31c-13.027-5.51-26.883-8.246-41.062-8.208
			c-4.135-4.364-8.665-8.39-13.523-12.013c-18.109-13.505-39.639-20.644-62.262-20.644c-20.129,0-39.68,5.764-56.539,16.666
			c-3.105,2.008-6.115,4.19-8.998,6.521c-4.672-0.634-9.402-0.955-14.129-0.955c-14.05,0-27.702,2.762-40.578,8.209
			c-12.414,5.25-23.553,12.757-33.107,22.311c-9.556,9.556-17.063,20.695-22.313,33.109C2.762,143.955,0,157.607,0,171.65
			s2.762,27.695,8.209,40.576C13.454,224.64,20.961,235.779,30.518,245.336z"/>
	</g>
</g>
</svg>